<?xml version="1.0" encoding="utf-8"?>
<!-- Generator: Adobe Illustrator 19.1.0, SVG Export Plug-In . SVG Version: 6.00 Build 0)  -->
<svg version="1.1" id="Layer_1" xmlns="http://www.w3.org/2000/svg" xmlns:xlink="http://www.w3.org/1999/xlink" x="0px" y="0px"
	 viewBox="5 307 621 179" style="enable-background:new 5 307 621 179;" xml:space="preserve">
<style type="text/css">
	.st0{clip-path:url(#SVGID_2_);fill-rule:evenodd;clip-rule:evenodd;fill:#001689;}
	.st1{clip-path:url(#SVGID_2_);}
	.st2{clip-path:url(#SVGID_4_);fill-rule:evenodd;clip-rule:evenodd;fill:#001689;}
	.st3{clip-path:url(#SVGID_4_);fill:none;stroke:#001689;stroke-width:1.2;stroke-miterlimit:2.613;}
	.st4{clip-path:url(#SVGID_4_);fill:none;stroke:#001689;stroke-width:1.5;stroke-miterlimit:2.613;}
	.st5{clip-path:url(#SVGID_4_);fill:#EE3338;}
	.st6{clip-path:url(#SVGID_4_);fill:none;stroke:#001689;stroke-width:0.759;stroke-miterlimit:2.613;}
</style>
<g>
	<g>
		<defs>
			<rect id="SVGID_1_" x="15.2" y="322.5" width="600.5" height="148"/>
		</defs>
		<clipPath id="SVGID_2_">
			<use xlink:href="#SVGID_1_"  style="overflow:visible;"/>
		</clipPath>
		<polygon class="st0" points="119.8,342.9 161.1,342.9 126.7,434.6 85.2,434.6 		"/>
		<polygon class="st0" points="227.7,342.9 261,398.4 280.3,342.9 321.7,342.9 287.3,434.6 248.3,434.6 213.7,380.3 193.3,434.6 
			151.9,434.6 186.4,342.9 		"/>
		<g class="st1">
			<defs>
				<rect id="SVGID_3_" x="15.2" y="322.5" width="600.5" height="148"/>
			</defs>
			<clipPath id="SVGID_4_">
				<use xlink:href="#SVGID_3_"  style="overflow:visible;"/>
			</clipPath>
			<path class="st2" d="M392.6,342.9c33.3-1.7,59.8,2.9,68.7,11.6c7.6,7.4,12.2,10.7,12.2,27.6c0,11.6-5.5,22.1-14.4,29.6
				c-8.8,7.5-27.3,25.5-100.9,22.8l-41.5,0l34.5-91.6H392.6z M384.7,364c18-0.9,49.4-3.4,48.7,17.5c-0.2,6.4-7.2,25.9-29.4,29.8
				c-9.2,1.6-21.8,1.9-37.6,1.5L384.7,364z"/>
			<path class="st2" d="M84.4,437h408.8c11,0,17.4-9.1,14.9-17.3l-24.2-77.8h43l13.3,50.8l37-51h38.7
				c-24.1,36.1-42.2,62.4-73.8,99.8c-6.9,8.2-24,27-49.8,27h-10.2h-409L84.4,437z"/>
			<polygon class="st2" points="111.6,340.2 90.9,364.4 75.2,358.1 67.9,398.5 53.4,376.6 47.9,391.6 30.3,387.2 29.9,401.4 
				15.2,409.3 40.7,432.5 31,443.5 68.4,439.3 56.9,470.5 64,470.5 			"/>
			<polyline class="st3" points="31,388.7 81.2,365 77.6,358.9 106.6,346 110.1,341.9 150,325 150.5,330.5 			"/>
			<path class="st3" d="M188.7,327.9l-32,18.1 M125.5,433.4l39.1-35.4l26-71.2h-30.8l-39.3,17.7"/>
			<polyline class="st4" points="191.8,433.7 215.4,401.1 221.4,389 			"/>
			<line class="st4" x1="230.7" y1="401.1" x2="215.4" y2="401.1"/>
			<line class="st3" x1="244" y1="326.3" x2="225.7" y2="344.7"/>
			<polyline class="st3" points="186.8,344.2 214.1,325.7 244.2,325.7 270.8,372.2 288.7,325.6 320,325.6 320,343 			"/>
			<path class="st3" d="M344.8,325.9l8.9,19.9 M318.5,434.6c-0.1-10.1,0-34.3,0-34.3l25.9-74.8h52.7c26.9,2.2,37.2,10.9,56.8,26.2"
				/>
			<line class="st3" x1="298.2" y1="401.7" x2="319.6" y2="401.7"/>
			<polyline class="st3" points="63,468.7 83.2,451.2 85.5,438.9 93.9,431.6 			"/>
			<path class="st5" d="M112.4,455.8v-4h15.2V462h-7.2l-0.5-1.8c-2.4,1.5-5.8,2.2-10,2.2c-3.5,0-6.4-0.4-8.9-1.3
				c-2.5-0.8-4.4-1.9-5.6-3.4c-1.3-1.4-1.9-3-1.9-4.8c0-1.4,0.4-2.6,1.1-3.8c0.7-1.2,1.8-2.3,3.3-3.2c1.5-0.9,3.3-1.6,5.6-2.2
				c2.2-0.5,4.8-0.8,7.8-0.8c2.1,0,4.1,0.2,5.9,0.5c1.8,0.3,3.4,0.7,4.8,1.3c1.4,0.6,2.5,1.3,3.5,2.2c0.9,0.9,1.5,1.8,1.8,2.9h-10.5
				c-0.3-0.7-1-1.2-1.9-1.7c-1-0.4-2.2-0.7-3.7-0.7c-2,0-3.6,0.5-4.7,1.4c-1.1,0.9-1.7,2.3-1.7,4c0,0.9,0.2,1.8,0.7,2.5
				c0.4,0.7,1.2,1.3,2.2,1.8c1,0.4,2.4,0.7,4.2,0.7c1.3,0,2.5-0.2,3.6-0.6c1.1-0.4,1.8-0.9,2.1-1.5H112.4z"/>
			<path class="st5" d="M136.6,443.6H153c4,0,7.1,0.2,9.2,0.7c2.1,0.5,3.6,1.1,4.3,1.8c0.7,0.8,1.1,1.6,1.1,2.7c0,1.2-0.5,2.2-1.6,3
				c-1.1,0.8-2.4,1.3-4.1,1.5c1.6,0.3,2.7,0.6,3.3,0.9c0.7,0.2,1.2,0.7,1.7,1.3c0.4,0.6,0.7,1.5,0.7,2.7v1.4c0,0.7,0.1,1.1,0.3,1.4
				c0.2,0.3,0.5,0.4,0.9,0.4v0.5h-11.2c-0.3-0.5-0.4-1.1-0.5-1.8c-0.1-0.7-0.1-1.3-0.1-2c0-0.6-0.2-1.2-0.5-1.6
				c-0.3-0.4-0.8-0.7-1.6-0.8c-1.2-0.2-3-0.3-5.6-0.3h-1.6v6.4h-11.1V443.6z M147.7,447.9v3.6h4.6c2,0,3.3-0.2,4-0.5
				c0.7-0.3,1-0.8,1-1.3c0-0.6-0.4-1.1-1.2-1.4c-0.8-0.3-1.8-0.5-3.1-0.5H147.7z"/>
			<path class="st5" d="M188,455.7h7l-3.6-6.6L188,455.7z M186,443.6h11.3l12.1,18.3h-11l-1.4-2.4h-11l-1.3,2.4h-10.8L186,443.6z"/>
			<path class="st5" d="M226.6,447.9v4.1h4.8c1.2,0,2.2-0.2,3-0.5c0.8-0.3,1.2-0.9,1.2-1.6c0-1.3-1.9-1.9-5.8-1.9H226.6z
				 M215.5,443.6h16.2c2.4,0,4.6,0.1,6.4,0.4c1.8,0.3,3.3,0.7,4.5,1.2c1.2,0.5,2.1,1.2,2.7,2s0.9,1.7,0.9,2.8c0,0.9-0.3,1.6-0.7,2.4
				c-0.5,0.7-1.2,1.4-2.3,1.9c-1.1,0.6-2.5,1-4.3,1.4c-1.8,0.3-4,0.5-6.6,0.5h-5.7v5.7h-11.1V443.6z"/>
			<polygon class="st5" points="253.1,443.6 264.2,443.6 264.2,449.8 274.7,449.8 274.7,443.6 285.8,443.6 285.8,461.9 274.7,461.9 
				274.7,454.8 264.2,454.8 264.2,461.9 253.1,461.9 			"/>
			<rect x="295.5" y="443.6" class="st5" width="11.1" height="18.3"/>
			<path class="st5" d="M337.7,450.6c-0.2-0.8-0.6-1.5-1.3-1.9c-0.7-0.4-1.5-0.7-2.3-0.9c-0.8-0.1-1.6-0.2-2.3-0.2
				c-2.2,0-3.9,0.5-4.9,1.5c-1,1-1.5,2.3-1.5,3.8c0,3.3,2.2,5,6.6,5.1c3.3,0,5.2-1,5.8-3.1h10.6c-0.3,1.5-1.1,2.8-2.5,3.9
				c-1.3,1.2-3.2,2.1-5.5,2.7c-2.3,0.7-5,1-8.1,1c-2.7,0-5.2-0.2-7.4-0.7c-2.2-0.4-4.1-1.1-5.7-1.9c-1.6-0.8-2.8-1.8-3.6-3
				c-0.8-1.2-1.3-2.5-1.3-4c0-1.7,0.5-3.2,1.5-4.4c1-1.3,2.3-2.3,4-3.1c1.7-0.8,3.5-1.4,5.5-1.7c2-0.4,4-0.6,6-0.6
				c6,0.1,10.2,0.8,12.6,2.2c2.4,1.4,3.8,3.2,4.4,5.3H337.7z"/>
			<path class="st5" d="M373.7,448.9c-0.3-1.1-1.8-1.6-4.6-1.6c-2.2,0-3.3,0.3-3.4,1c0,0.3,0.2,0.6,0.7,0.8c0.5,0.2,1.1,0.4,1.9,0.6
				c0.8,0.2,1.6,0.3,2.6,0.4c1,0.1,1.9,0.2,2.7,0.3c2.6,0.3,4.7,0.8,6.4,1.2c1.7,0.5,3,1.1,3.8,1.8c0.9,0.7,1.3,1.6,1.3,2.7
				c0,1.5-0.8,2.7-2.2,3.6c-1.5,0.9-3.4,1.6-5.8,2c-2.4,0.4-4.9,0.6-7.7,0.6c-2.7,0-5.2-0.3-7.4-0.8c-2.2-0.5-4-1.2-5.4-2.2
				c-1.4-0.9-2.1-2-2.2-3.2H365c0.2,0.7,0.9,1.2,1.9,1.5c1,0.3,2.1,0.4,3.3,0.4c2.7-0.1,4.2-0.5,4.3-1.2c0-0.5-0.5-0.9-1.6-1.2
				c-1-0.3-2.7-0.6-5-0.9c-2.1-0.3-3.9-0.6-5.3-0.8c-1.4-0.3-2.7-0.6-3.8-1.1c-1.1-0.4-2-1-2.7-1.7c-0.6-0.7-1-1.6-1-2.6
				c0-1.1,0.6-2,1.8-2.9c1.2-0.8,2.8-1.5,5.1-2c2.2-0.5,4.8-0.7,7.9-0.7c1.8,0,3.4,0.1,5,0.3c1.6,0.2,3,0.5,4.3,1
				c1.3,0.4,2.4,1.1,3.3,1.8c0.9,0.8,1.5,1.7,1.7,2.7H373.7z"/>
			<rect x="409" y="443.6" class="st5" width="11.1" height="18.3"/>
			<path class="st5" d="M429,448.6h8.9v2.1c2.2-1.7,4.9-2.5,8.3-2.5c1.8,0,3.4,0.2,4.8,0.6c1.4,0.4,2.6,1,3.4,1.8
				c0.8,0.8,1.3,1.9,1.3,3.3v8H446v-7.1c0-1.6-1.1-2.4-3.4-2.4c-1.3,0-2.2,0.2-2.9,0.6c-0.6,0.4-1,1.1-1,2.1v6.8H429V448.6z"/>
			<path class="st5" d="M480.3,453.7c0-0.6-0.4-1.1-1-1.4c-0.6-0.4-1.5-0.5-2.5-0.5c-2.8,0-4.2,1.2-4.3,3.6c0,1,0.4,1.8,1.1,2.5
				c0.7,0.6,1.8,1,3.4,1c2.1-0.1,3.4-0.7,3.7-2h9.9c-0.4,1.8-1.8,3.2-4.2,4.1c-2.4,0.9-5.6,1.4-9.4,1.4c-2.3,0-4.4-0.2-6.2-0.6
				c-1.8-0.4-3.3-0.9-4.5-1.5c-1.2-0.6-2.1-1.4-2.6-2.2c-0.6-0.8-0.9-1.7-0.9-2.6c0-1.3,0.5-2.5,1.5-3.6c1-1.1,2.5-2,4.6-2.7
				c2.1-0.7,4.8-1,8.1-1c2.4,0,4.6,0.2,6.6,0.6c2,0.4,3.5,1,4.7,1.9c1.2,0.8,1.8,1.8,2,3H480.3z"/>
			<rect x="498.4" y="456.7" class="st5" width="9.8" height="5.3"/>
			<path class="st3" d="M411.6,359.3c-5.4,17.3-22,24.4-36.5,22"/>
			<path class="st3" d="M453.5,325.6L490,346 M468.4,376.3l-15.6-50.7h30.8l42.5,17.7"/>
			<polyline class="st6" points="614.9,343 557.3,325.7 524.8,325.5 580.5,344.5 			"/>
			<line class="st3" x1="526.8" y1="325.8" x2="515.3" y2="338.8"/>
		</g>
	</g>
</g>
</svg>
